<svg width="844" height="254" viewBox="0 0 844 254" fill="none" xmlns="http://www.w3.org/2000/svg">
<path d="M313.92 195H287.64V153.06L261 69H285.48L296.64 107.34L300.42 129.48H301.14L304.92 107.34L316.08 69H340.56L313.92 153.06V195ZM393.944 195L390.164 175.02H361.724L357.944 195H333.464L357.764 69H395.024L418.064 195H393.944ZM375.584 92.4L368.564 134.34L364.604 155.76H387.104L382.964 134.34L375.944 92.4H375.584ZM474.446 137.4H473.726H474.446L483.986 97.98L491.726 69H514.226L522.326 195H498.746L495.326 126.24H494.426L481.466 177H466.706L453.746 126.24H452.846L449.426 195H425.846L433.946 69H456.446L464.186 97.98L473.726 137.4H474.446ZM590.468 195L586.688 175.02H558.248L554.468 195H529.988L554.288 69H591.548L614.588 195H590.468ZM572.108 92.4L565.088 134.34L561.128 155.76H583.628L579.488 134.34L572.468 92.4H572.108ZM649.55 174.12H665.75C669.11 169.92 671.75 163.8 673.67 155.76C675.71 147.72 676.73 139.74 676.73 131.82C676.73 112.98 673.19 99.24 666.11 90.6H649.55V174.12ZM625.07 195V69H677.27C694.31 84.12 702.83 104.64 702.83 130.56C702.83 156.36 694.85 177.84 678.89 195H625.07ZM768.71 195L764.93 175.02H736.49L732.71 195H708.23L732.53 69H769.79L792.83 195H768.71ZM750.35 92.4L743.33 134.34L739.37 155.76H761.87L757.73 134.34L750.71 92.4H750.35Z" fill="white"/>
<rect x="23" y="25" width="200" height="200" rx="100" fill="#C4C4C4"/>
<path d="M139.629 181.952C139.743 184.059 146.095 185.74 158.685 186.993C159.482 190.354 159.368 193.972 158.343 197.845C142.677 197.617 130.885 197.503 122.967 197.503C115.162 197.503 103.427 197.617 87.7617 197.845C85.9388 194.484 85.9388 190.867 87.7617 186.993C100.18 185.74 106.447 184.116 106.561 182.123C107.13 166.343 107.472 152.215 107.586 139.74L75.7134 84.2832C72.922 79.612 66.3424 76.7637 55.9746 75.7383C55.5189 73.9723 55.291 72.2633 55.291 70.6113C55.291 68.8454 55.6328 66.937 56.3164 64.8862C68.3363 65.342 82.4924 65.5698 98.7847 65.5698C110.577 65.5698 119.292 65.4559 124.932 65.228C125.502 67.1649 125.787 68.8454 125.787 70.2695C125.787 71.9215 125.502 73.8014 124.932 75.9092C118.837 76.3649 114.621 76.8776 112.286 77.4473C109.95 78.0169 108.782 78.8999 108.782 80.0962C108.782 80.438 115.732 93.0845 129.632 118.036C145.127 92.2869 152.874 79.2702 152.874 78.9854C152.874 78.4157 152.532 77.903 151.849 77.4473C151.165 76.9915 150.225 76.6213 149.029 76.3364C147.889 76.0516 146.807 75.8522 145.782 75.7383C144.813 75.6243 143.674 75.5104 142.364 75.3965C141.111 75.2256 140.37 75.1401 140.142 75.1401C139.174 72.1209 139.345 68.703 140.655 64.8862C151.137 65.342 158.941 65.5698 164.068 65.5698C168.853 65.5698 175.803 65.342 184.917 64.8862C186.228 68.8169 186.228 72.4342 184.917 75.7383C176.145 76.5358 170.363 79.1562 167.571 83.5996L138.689 129.913C138.689 153.041 139.003 170.388 139.629 181.952ZM110.064 182.293C109.893 186.509 103.285 189.243 90.2397 190.497C89.6701 191.921 89.6701 193.316 90.2397 194.684C115.419 194.228 137.009 194.171 155.01 194.513C155.466 193.373 155.466 191.978 155.01 190.326C136.097 189.186 126.584 186.509 126.47 182.293C125.901 165.944 125.616 153.269 125.616 144.269L164.666 81.8052C168.027 76.3364 173.951 73.2033 182.439 72.4058C182.952 71.4373 182.952 70.0986 182.439 68.3896C176.059 68.7314 169.594 68.9023 163.042 68.9023C157.118 68.9023 150.481 68.7314 143.133 68.3896C142.62 69.3011 142.62 70.6398 143.133 72.4058C151.507 73.3172 155.979 75.1686 156.548 77.96C156.776 79.0423 156.434 80.3241 155.523 81.8052L124.59 132.904L96.563 82.916C94.5692 79.1562 95.1673 76.6782 98.3574 75.4819C101.604 74.2287 109.352 73.2033 121.6 72.4058C122.055 70.7537 122.055 69.415 121.6 68.3896C104.795 69.1872 83.8311 69.1872 58.709 68.3896C58.2533 69.415 58.2533 70.7537 58.709 72.4058C68.792 73.3172 75.514 76.8206 78.875 82.916L111.089 139.056C110.975 152.443 110.634 166.856 110.064 182.293Z" fill="black"/>
</svg>
